<svg xmlns="http://www.w3.org/2000/svg" viewBox="0 0 128 128" fill="none" role="img" aria-label="Featherlush">
  <defs>
    <linearGradient id="featherlush-main" x1="36" y1="14" x2="92" y2="114" gradientUnits="userSpaceOnUse">
      <stop stop-color="#60A5FA"/>
      <stop offset="0.45" stop-color="#3B82F6"/>
      <stop offset="1" stop-color="#2563EB"/>
    </linearGradient>
    <linearGradient id="featherlush-soft" x1="64" y1="18" x2="64" y2="108" gradientUnits="userSpaceOnUse">
      <stop stop-color="#93C5FD" stop-opacity="0.45"/>
      <stop offset="1" stop-color="#3B82F6" stop-opacity="0"/>
    </linearGradient>
    <linearGradient id="featherlush-stem" x1="44" y1="104" x2="52" y2="118" gradientUnits="userSpaceOnUse">
      <stop stop-color="#3B82F6"/>
      <stop offset="1" stop-color="#1D4ED8"/>
    </linearGradient>
    <linearGradient id="featherlush-data" x1="72" y1="24" x2="104" y2="44" gradientUnits="userSpaceOnUse">
      <stop stop-color="#BFDBFE"/>
      <stop offset="1" stop-color="#E0F2FE"/>
    </linearGradient>
  </defs>

  <!-- centered as a group: bbox ~(36,12)-(101,118) → optical center at 64,64 -->
  <g transform="translate(-4.5, -2)">
    <path
      d="M58 16C42 34 36 58 38 82C40 98 46 108 54 112C68 94 80 72 78 50C76 32 68 20 58 16Z"
      fill="url(#featherlush-soft)"
    />

    <path
      d="M62 12C54 18 48 30 46 46C44 62 46 78 50 92C52 100 54 104 56 102C58 94 62 78 66 62C72 42 78 26 74 16C72 10 66 10 62 12Z"
      fill="url(#featherlush-main)"
    />

    <path
      d="M56 38C64 34 72 30 80 28"
      stroke="#93C5FD"
      stroke-width="1.75"
      stroke-linecap="round"
      opacity="0.55"
    />
    <path
      d="M54 52C66 48 74 44 82 42"
      stroke="#93C5FD"
      stroke-width="1.75"
      stroke-linecap="round"
      opacity="0.45"
    />
    <path
      d="M52 66C64 62 74 58 80 56"
      stroke="#93C5FD"
      stroke-width="1.75"
      stroke-linecap="round"
      opacity="0.35"
    />

    <path
      d="M50 100C48 106 46 112 45 118"
      stroke="url(#featherlush-stem)"
      stroke-width="3.25"
      stroke-linecap="round"
    />

    <path
      d="M74 34L82 28L88 32L98 20"
      stroke="url(#featherlush-data)"
      stroke-width="2.25"
      stroke-linecap="round"
      stroke-linejoin="round"
    />
    <circle cx="74" cy="34" r="2.25" fill="#DBEAFE"/>
    <circle cx="82" cy="28" r="2.25" fill="#DBEAFE"/>
    <circle cx="88" cy="32" r="2.25" fill="#E0F2FE"/>
    <circle cx="98" cy="20" r="3" fill="#FFFFFF"/>
  </g>
</svg>
